<?xml version="1.0" encoding="UTF-8" standalone="no"?><!DOCTYPE svg PUBLIC "-//W3C//DTD SVG 1.1//EN" "http://www.w3.org/Graphics/SVG/1.1/DTD/svg11.dtd"><!-- Generated by graphviz version 2.40.1 (20161225.0304)
 --><!-- Title: G Pages: 1 --><svg xmlns="http://www.w3.org/2000/svg" xmlns:xlink="http://www.w3.org/1999/xlink" width="1780pt" height="495pt" viewBox="0.00 0.00 1780.07 494.60">
<g id="graph0" class="graph" transform="scale(1 1) rotate(0) translate(4 490.6015)">
<title>G</title>
<polygon fill="#ffffff" stroke="transparent" points="-4,4 -4,-490.6015 1776.0708,-490.6015 1776.0708,4 -4,4"/>
<!-- 1 -->
<g id="node1" class="node">
<title>1</title>
<ellipse fill="none" stroke="#000000" cx="1045.2797" cy="-468.6015" rx="142.9568" ry="18"/>
<text text-anchor="middle" x="1045.2797" y="-464.4015" font-family="Times,serif" font-size="14.00" fill="#000000">if A then if B then C else D else E</text>
</g>
<!-- 2 -->
<g id="node2" class="node">
<title>2</title>
<ellipse fill="none" stroke="#000000" cx="1255.2797" cy="-385.1859" rx="153.7488" ry="29.3315"/>
<text text-anchor="start" x="1154.4741" y="-389.3859" font-family="Times,serif" font-size="14.00" fill="#000000">case A of true =&gt; if B then C else D</text>
<text text-anchor="start" x="1154.4741" y="-372.5859" font-family="Times,serif" font-size="14.00" fill="#000000">| false =&gt; E</text>
</g>
<!-- 1&#45;&gt;2 -->
<g id="edge1" class="edge">
<title>1-&gt;2</title>
<path fill="none" stroke="#000000" d="M1088.5372,-451.4189C1114.652,-441.0456 1148.6696,-427.5333 1179.163,-415.4207"/>
<polygon fill="#000000" stroke="#000000" points="1180.4992,-418.6561 1188.5007,-411.7116 1177.915,-412.1505 1180.4992,-418.6561"/>
</g>
<!-- 3 -->
<g id="node3" class="node">
<title>3</title>
<ellipse fill="none" stroke="#000000" cx="896.2797" cy="-385.1859" rx="126.2769" ry="29.3315"/>
<text text-anchor="start" x="814.9096" y="-389.3859" font-family="Times,serif" font-size="14.00" fill="#000000">if A then case B of true =&gt; C</text>
<text text-anchor="start" x="814.9096" y="-372.5859" font-family="Times,serif" font-size="14.00" fill="#000000">| false =&gt; D else E</text>
</g>
<!-- 1&#45;&gt;3 -->
<g id="edge2" class="edge">
<title>1-&gt;3</title>
<path fill="none" stroke="#000000" d="M1013.6806,-450.9112C996.2679,-441.1629 974.1121,-428.7593 953.7497,-417.3596"/>
<polygon fill="#000000" stroke="#000000" points="955.2842,-414.2076 944.8488,-412.3766 951.8648,-420.3156 955.2842,-414.2076"/>
</g>
<!-- 4 -->
<g id="node4" class="node">
<title>4</title>
<ellipse fill="none" stroke="#000000" cx="774.2797" cy="-278.4752" rx="160.1607" ry="41.0911"/>
<text text-anchor="start" x="669.0858" y="-291.0752" font-family="Times,serif" font-size="14.00" fill="#000000">case A of true =&gt; case B of true =&gt; C</text>
<text text-anchor="start" x="669.0858" y="-274.2752" font-family="Times,serif" font-size="14.00" fill="#000000">| false =&gt; D</text>
<text text-anchor="start" x="669.0858" y="-257.4752" font-family="Times,serif" font-size="14.00" fill="#000000">| false =&gt; E</text>
</g>
<!-- 2&#45;&gt;4 -->
<g id="edge3" class="edge">
<title>2-&gt;4</title>
<path fill="none" stroke="#000000" d="M1148.9508,-363.7979C1088.537,-351.4191 1011.5543,-335.2646 943.2797,-319.7702 929.1599,-316.5658 914.4023,-313.1135 899.7407,-309.6185"/>
<polygon fill="#000000" stroke="#000000" points="900.1548,-306.1188 889.6147,-307.1946 898.5251,-312.9265 900.1548,-306.1188"/>
</g>
<!-- 5 -->
<g id="node5" class="node">
<title>5</title>
<ellipse fill="none" stroke="#000000" cx="1317.2797" cy="-278.4752" rx="145.1474" ry="29.3315"/>
<text text-anchor="start" x="1222.6971" y="-282.6752" font-family="Times,serif" font-size="14.00" fill="#000000">(fn true =&gt; if B then C else D)(A)</text>
<text text-anchor="start" x="1222.6971" y="-265.8752" font-family="Times,serif" font-size="14.00" fill="#000000">| false =&gt; E</text>
</g>
<!-- 2&#45;&gt;5 -->
<g id="edge5" class="edge">
<title>2-&gt;5</title>
<path fill="none" stroke="#000000" d="M1272.3856,-355.7442C1279.4332,-343.6142 1287.6889,-329.4051 1295.1853,-316.5028"/>
<polygon fill="#000000" stroke="#000000" points="1298.2321,-318.2256 1300.2296,-307.8207 1292.1796,-314.709 1298.2321,-318.2256"/>
</g>
<!-- 6 -->
<g id="node6" class="node">
<title>6</title>
<ellipse fill="none" stroke="#000000" cx="1608.2797" cy="-278.4752" rx="128.0813" ry="29.3315"/>
<text text-anchor="start" x="1525.7413" y="-282.6752" font-family="Times,serif" font-size="14.00" fill="#000000">(fn true =&gt; if B then C else D</text>
<text text-anchor="start" x="1525.7413" y="-265.8752" font-family="Times,serif" font-size="14.00" fill="#000000">| false =&gt; E)(A)</text>
</g>
<!-- 2&#45;&gt;6 -->
<g id="edge6" class="edge">
<title>2-&gt;6</title>
<path fill="none" stroke="#000000" d="M1337.597,-360.3016C1392.563,-343.6856 1464.7633,-321.8597 1520.7715,-304.9286"/>
<polygon fill="#000000" stroke="#000000" points="1522.1182,-308.178 1530.6776,-301.934 1520.0926,-301.4775 1522.1182,-308.178"/>
</g>
<!-- 3&#45;&gt;4 -->
<g id="edge4" class="edge">
<title>3-&gt;4</title>
<path fill="none" stroke="#000000" d="M863.5859,-356.5894C852.4803,-346.8755 839.7664,-335.7549 827.4814,-325.0095"/>
<polygon fill="#000000" stroke="#000000" points="829.7372,-322.3327 819.9059,-318.3834 825.1286,-327.6015 829.7372,-322.3327"/>
</g>
<!-- 7 -->
<g id="node7" class="node">
<title>7</title>
<ellipse fill="none" stroke="#000000" cx="476.2797" cy="-278.4752" rx="117.6756" ry="29.3315"/>
<text text-anchor="start" x="401.1326" y="-282.6752" font-family="Times,serif" font-size="14.00" fill="#000000">if A then (fn true =&gt; C)(B)</text>
<text text-anchor="start" x="401.1326" y="-265.8752" font-family="Times,serif" font-size="14.00" fill="#000000">| false =&gt; D else E</text>
</g>
<!-- 3&#45;&gt;7 -->
<g id="edge7" class="edge">
<title>3-&gt;7</title>
<path fill="none" stroke="#000000" d="M800.407,-365.8704C743.4101,-353.8326 669.863,-337.3292 605.2797,-319.7702 589.4009,-315.4531 572.5643,-310.4106 556.4799,-305.3619"/>
<polygon fill="#000000" stroke="#000000" points="557.1677,-301.9084 546.5776,-302.224 555.0531,-308.5813 557.1677,-301.9084"/>
</g>
<!-- 8 -->
<g id="node8" class="node">
<title>8</title>
<ellipse fill="none" stroke="#000000" cx="1053.2797" cy="-278.4752" rx="101.1984" ry="29.3315"/>
<text text-anchor="start" x="989.7918" y="-282.6752" font-family="Times,serif" font-size="14.00" fill="#000000">if A then (fn true =&gt; C</text>
<text text-anchor="start" x="989.7918" y="-265.8752" font-family="Times,serif" font-size="14.00" fill="#000000">| false =&gt; D)(B) else E</text>
</g>
<!-- 3&#45;&gt;8 -->
<g id="edge8" class="edge">
<title>3-&gt;8</title>
<path fill="none" stroke="#000000" d="M937.5296,-357.1489C958.2226,-343.0841 983.4113,-325.9637 1005.0008,-311.2897"/>
<polygon fill="#000000" stroke="#000000" points="1007.0862,-314.1042 1013.3892,-305.5882 1003.1512,-308.3149 1007.0862,-314.1042"/>
</g>
<!-- 9 -->
<g id="node9" class="node">
<title>9</title>
<ellipse fill="none" stroke="#000000" cx="151.2797" cy="-159.8851" rx="151.0597" ry="41.0911"/>
<text text-anchor="start" x="52.3088" y="-172.4851" font-family="Times,serif" font-size="14.00" fill="#000000">(fn true =&gt; case B of true =&gt; C)(A)</text>
<text text-anchor="start" x="52.3088" y="-155.6851" font-family="Times,serif" font-size="14.00" fill="#000000">| false =&gt; D</text>
<text text-anchor="start" x="52.3088" y="-138.8851" font-family="Times,serif" font-size="14.00" fill="#000000">| false =&gt; E</text>
</g>
<!-- 4&#45;&gt;9 -->
<g id="edge9" class="edge">
<title>4-&gt;9</title>
<path fill="none" stroke="#000000" d="M661.0678,-249.2203C641.8616,-244.8081 622.0593,-240.5979 603.2797,-237.1801 475.0664,-213.8465 440.325,-225.4186 312.2797,-201.1801 297.7434,-198.4285 282.572,-195.1227 267.603,-191.5951"/>
<polygon fill="#000000" stroke="#000000" points="268.3443,-188.1737 257.8041,-189.2485 266.714,-194.9812 268.3443,-188.1737"/>
</g>
<!-- 10 -->
<g id="node10" class="node">
<title>10</title>
<ellipse fill="none" stroke="#000000" cx="776.2797" cy="-159.8851" rx="134.4937" ry="41.0911"/>
<text text-anchor="start" x="689.353" y="-172.4851" font-family="Times,serif" font-size="14.00" fill="#000000">(fn true =&gt; case B of true =&gt; C</text>
<text text-anchor="start" x="689.353" y="-155.6851" font-family="Times,serif" font-size="14.00" fill="#000000">| false =&gt; D)(A)</text>
<text text-anchor="start" x="689.353" y="-138.8851" font-family="Times,serif" font-size="14.00" fill="#000000">| false =&gt; E</text>
</g>
<!-- 4&#45;&gt;10 -->
<g id="edge10" class="edge">
<title>4-&gt;10</title>
<path fill="none" stroke="#000000" d="M774.9792,-236.9981C775.1169,-228.8306 775.2631,-220.1659 775.4057,-211.7073"/>
<polygon fill="#000000" stroke="#000000" points="778.908,-211.5968 775.5772,-201.5392 771.909,-211.4787 778.908,-211.5968"/>
</g>
<!-- 11 -->
<g id="node11" class="node">
<title>11</title>
<ellipse fill="none" stroke="#000000" cx="1350.2797" cy="-159.8851" rx="134.4937" ry="41.0911"/>
<text text-anchor="start" x="1263.353" y="-172.4851" font-family="Times,serif" font-size="14.00" fill="#000000">(fn true =&gt; case B of true =&gt; C</text>
<text text-anchor="start" x="1263.353" y="-155.6851" font-family="Times,serif" font-size="14.00" fill="#000000">| false =&gt; D</text>
<text text-anchor="start" x="1263.353" y="-138.8851" font-family="Times,serif" font-size="14.00" fill="#000000">| false =&gt; E)(A)</text>
</g>
<!-- 4&#45;&gt;11 -->
<g id="edge12" class="edge">
<title>4-&gt;11</title>
<path fill="none" stroke="#000000" d="M887.5589,-249.0775C906.1086,-244.7593 925.1788,-240.6161 943.2797,-237.1801 1059.6214,-215.0959 1091.4209,-225.6721 1207.2797,-201.1801 1219.8714,-198.5183 1232.9761,-195.3292 1245.9177,-191.9187"/>
<polygon fill="#000000" stroke="#000000" points="1247.0212,-195.2465 1255.7712,-189.2726 1245.2056,-188.486 1247.0212,-195.2465"/>
</g>
<!-- 12 -->
<g id="node12" class="node">
<title>12</title>
<ellipse fill="none" stroke="#000000" cx="472.2797" cy="-159.8851" rx="151.0597" ry="41.0911"/>
<text text-anchor="start" x="373.3088" y="-172.4851" font-family="Times,serif" font-size="14.00" fill="#000000">case A of true =&gt; (fn true =&gt; C)(B)</text>
<text text-anchor="start" x="373.3088" y="-155.6851" font-family="Times,serif" font-size="14.00" fill="#000000">| false =&gt; D</text>
<text text-anchor="start" x="373.3088" y="-138.8851" font-family="Times,serif" font-size="14.00" fill="#000000">| false =&gt; E</text>
</g>
<!-- 4&#45;&gt;12 -->
<g id="edge14" class="edge">
<title>4-&gt;12</title>
<path fill="none" stroke="#000000" d="M686.117,-243.8552C649.122,-229.3279 606.0022,-212.3956 568.2138,-197.5567"/>
<polygon fill="#000000" stroke="#000000" points="569.3158,-194.2293 558.7284,-193.832 566.7571,-200.745 569.3158,-194.2293"/>
</g>
<!-- 13 -->
<g id="node13" class="node">
<title>13</title>
<ellipse fill="none" stroke="#000000" cx="1063.2797" cy="-159.8851" rx="134.5825" ry="41.0911"/>
<text text-anchor="start" x="975.968" y="-172.4851" font-family="Times,serif" font-size="14.00" fill="#000000">case A of true =&gt; (fn true =&gt; C</text>
<text text-anchor="start" x="975.968" y="-155.6851" font-family="Times,serif" font-size="14.00" fill="#000000">| false =&gt; D)(B)</text>
<text text-anchor="start" x="975.968" y="-138.8851" font-family="Times,serif" font-size="14.00" fill="#000000">| false =&gt; E</text>
</g>
<!-- 4&#45;&gt;13 -->
<g id="edge16" class="edge">
<title>4-&gt;13</title>
<path fill="none" stroke="#000000" d="M859.8162,-243.3756C895.4163,-228.7672 936.7797,-211.7939 972.8785,-196.9809"/>
<polygon fill="#000000" stroke="#000000" points="974.4994,-200.0991 982.4221,-193.0647 971.842,-193.6231 974.4994,-200.0991"/>
</g>
<!-- 14 -->
<g id="node14" class="node">
<title>14</title>
<ellipse fill="none" stroke="#000000" cx="1637.2797" cy="-159.8851" rx="134.5825" ry="41.0911"/>
<text text-anchor="start" x="1549.968" y="-172.4851" font-family="Times,serif" font-size="14.00" fill="#000000">case A of true =&gt; (fn true =&gt; C</text>
<text text-anchor="start" x="1549.968" y="-155.6851" font-family="Times,serif" font-size="14.00" fill="#000000">| false =&gt; D</text>
<text text-anchor="start" x="1549.968" y="-138.8851" font-family="Times,serif" font-size="14.00" fill="#000000">| false =&gt; E)(B)</text>
</g>
<!-- 4&#45;&gt;14 -->
<g id="edge18" class="edge">
<title>4-&gt;14</title>
<path fill="none" stroke="#000000" d="M885.0877,-248.4844C904.3726,-244.1028 924.3231,-240.0938 943.2797,-237.1801 1185.4039,-199.9655 1251.9402,-243.1841 1493.2797,-201.1801 1506.5784,-198.8656 1520.4037,-195.7921 1533.9955,-192.3626"/>
<polygon fill="#000000" stroke="#000000" points="1535.0399,-195.7076 1543.8403,-189.8082 1533.2818,-188.932 1535.0399,-195.7076"/>
</g>
<!-- 5&#45;&gt;10 -->
<g id="edge11" class="edge">
<title>5-&gt;10</title>
<path fill="none" stroke="#000000" d="M1234.1791,-254.3098C1211.3276,-248.1803 1186.4548,-241.9802 1163.2797,-237.1801 1055.9395,-214.9475 1026.4021,-224.4391 919.2797,-201.1801 906.8034,-198.4712 893.8166,-195.2698 880.9809,-191.8669"/>
<polygon fill="#000000" stroke="#000000" points="881.7724,-188.4554 871.2059,-189.2303 879.9493,-195.2138 881.7724,-188.4554"/>
</g>
<!-- 6&#45;&gt;11 -->
<g id="edge13" class="edge">
<title>6-&gt;11</title>
<path fill="none" stroke="#000000" d="M1551.0211,-252.1562C1516.8069,-236.4296 1472.7203,-216.1651 1434.5816,-198.6346"/>
<polygon fill="#000000" stroke="#000000" points="1435.571,-195.2374 1425.0231,-194.241 1432.6474,-201.5976 1435.571,-195.2374"/>
</g>
<!-- 7&#45;&gt;12 -->
<g id="edge15" class="edge">
<title>7-&gt;12</title>
<path fill="none" stroke="#000000" d="M475.2806,-248.8558C474.8972,-237.4878 474.4476,-224.1591 474.0149,-211.3295"/>
<polygon fill="#000000" stroke="#000000" points="477.5083,-211.0707 473.673,-201.1944 470.5122,-211.3067 477.5083,-211.0707"/>
</g>
<!-- 8&#45;&gt;13 -->
<g id="edge17" class="edge">
<title>8-&gt;13</title>
<path fill="none" stroke="#000000" d="M1055.7773,-248.8558C1056.7359,-237.4878 1057.8599,-224.1591 1058.9417,-211.3295"/>
<polygon fill="#000000" stroke="#000000" points="1062.4436,-211.4531 1059.7963,-201.1944 1055.4684,-210.8649 1062.4436,-211.4531"/>
</g>
<!-- 15 -->
<g id="node15" class="node">
<title>15</title>
<ellipse fill="none" stroke="#000000" cx="178.2797" cy="-41.295" rx="142.4581" ry="41.0911"/>
<text text-anchor="start" x="85.5318" y="-53.895" font-family="Times,serif" font-size="14.00" fill="#000000">(fn true =&gt; (fn true =&gt; C)(B))(A)</text>
<text text-anchor="start" x="85.5318" y="-37.095" font-family="Times,serif" font-size="14.00" fill="#000000">| false =&gt; D</text>
<text text-anchor="start" x="85.5318" y="-20.295" font-family="Times,serif" font-size="14.00" fill="#000000">| false =&gt; E</text>
</g>
<!-- 9&#45;&gt;15 -->
<g id="edge19" class="edge">
<title>9-&gt;15</title>
<path fill="none" stroke="#000000" d="M160.723,-118.4081C162.6248,-110.0548 164.6451,-101.1814 166.6124,-92.5404"/>
<polygon fill="#000000" stroke="#000000" points="170.08,-93.0759 168.8873,-82.5484 163.2546,-91.5219 170.08,-93.0759"/>
</g>
<!-- 16 -->
<g id="node16" class="node">
<title>16</title>
<ellipse fill="none" stroke="#000000" cx="481.2797" cy="-41.295" rx="125.392" ry="41.0911"/>
<text text-anchor="start" x="400.576" y="-53.895" font-family="Times,serif" font-size="14.00" fill="#000000">(fn true =&gt; (fn true =&gt; C)(B)</text>
<text text-anchor="start" x="400.576" y="-37.095" font-family="Times,serif" font-size="14.00" fill="#000000">| false =&gt; D)(A)</text>
<text text-anchor="start" x="400.576" y="-20.295" font-family="Times,serif" font-size="14.00" fill="#000000">| false =&gt; E</text>
</g>
<!-- 10&#45;&gt;16 -->
<g id="edge21" class="edge">
<title>10-&gt;16</title>
<path fill="none" stroke="#000000" d="M694.4975,-127.0086C655.9008,-111.4928 609.7578,-92.9432 570.2845,-77.075"/>
<polygon fill="#000000" stroke="#000000" points="571.5107,-73.7957 560.9268,-73.3132 568.8997,-80.2906 571.5107,-73.7957"/>
</g>
<!-- 17 -->
<g id="node17" class="node">
<title>17</title>
<ellipse fill="none" stroke="#000000" cx="1054.2797" cy="-41.295" rx="108.9148" ry="41.0911"/>
<text text-anchor="start" x="985.2352" y="-53.895" font-family="Times,serif" font-size="14.00" fill="#000000">(fn true =&gt; (fn true =&gt; C</text>
<text text-anchor="start" x="985.2352" y="-37.095" font-family="Times,serif" font-size="14.00" fill="#000000">| false =&gt; D)(B))(A)</text>
<text text-anchor="start" x="985.2352" y="-20.295" font-family="Times,serif" font-size="14.00" fill="#000000">| false =&gt; E</text>
</g>
<!-- 10&#45;&gt;17 -->
<g id="edge23" class="edge">
<title>10-&gt;17</title>
<path fill="none" stroke="#000000" d="M854.8286,-126.3775C891.5371,-110.7183 935.2314,-92.079 972.3534,-76.2434"/>
<polygon fill="#000000" stroke="#000000" points="973.8165,-79.4245 981.6413,-72.2814 971.0699,-72.9858 973.8165,-79.4245"/>
</g>
<!-- 18 -->
<g id="node18" class="node">
<title>18</title>
<ellipse fill="none" stroke="#000000" cx="785.2797" cy="-41.295" rx="125.392" ry="41.0911"/>
<text text-anchor="start" x="704.576" y="-53.895" font-family="Times,serif" font-size="14.00" fill="#000000">(fn true =&gt; (fn true =&gt; C)(B)</text>
<text text-anchor="start" x="704.576" y="-37.095" font-family="Times,serif" font-size="14.00" fill="#000000">| false =&gt; D</text>
<text text-anchor="start" x="704.576" y="-20.295" font-family="Times,serif" font-size="14.00" fill="#000000">| false =&gt; E)(A)</text>
</g>
<!-- 11&#45;&gt;18 -->
<g id="edge25" class="edge">
<title>11-&gt;18</title>
<path fill="none" stroke="#000000" d="M1255.7811,-130.4507C1239.699,-126.0597 1223.0868,-121.9031 1207.2797,-118.5901 1088.361,-93.6661 1055.3721,-106.6704 936.2797,-82.5901 920.7272,-79.4454 904.4149,-75.5873 888.4982,-71.5047"/>
<polygon fill="#000000" stroke="#000000" points="889.2087,-68.073 878.6492,-68.938 887.4434,-74.8468 889.2087,-68.073"/>
</g>
<!-- 19 -->
<g id="node19" class="node">
<title>19</title>
<ellipse fill="none" stroke="#000000" cx="1324.2797" cy="-41.295" rx="108.9148" ry="41.0911"/>
<text text-anchor="start" x="1255.2352" y="-53.895" font-family="Times,serif" font-size="14.00" fill="#000000">(fn true =&gt; (fn true =&gt; C</text>
<text text-anchor="start" x="1255.2352" y="-37.095" font-family="Times,serif" font-size="14.00" fill="#000000">| false =&gt; D)(B)</text>
<text text-anchor="start" x="1255.2352" y="-20.295" font-family="Times,serif" font-size="14.00" fill="#000000">| false =&gt; E)(A)</text>
</g>
<!-- 11&#45;&gt;19 -->
<g id="edge27" class="edge">
<title>11-&gt;19</title>
<path fill="none" stroke="#000000" d="M1341.1862,-118.4081C1339.3548,-110.0548 1337.4093,-101.1814 1335.5149,-92.5404"/>
<polygon fill="#000000" stroke="#000000" points="1338.8846,-91.5668 1333.3242,-82.5484 1332.047,-93.066 1338.8846,-91.5668"/>
</g>
<!-- 20 -->
<g id="node20" class="node">
<title>20</title>
<ellipse fill="none" stroke="#000000" cx="1603.2797" cy="-41.295" rx="108.9148" ry="41.0911"/>
<text text-anchor="start" x="1534.2352" y="-53.895" font-family="Times,serif" font-size="14.00" fill="#000000">(fn true =&gt; (fn true =&gt; C</text>
<text text-anchor="start" x="1534.2352" y="-37.095" font-family="Times,serif" font-size="14.00" fill="#000000">| false =&gt; D</text>
<text text-anchor="start" x="1534.2352" y="-20.295" font-family="Times,serif" font-size="14.00" fill="#000000">| false =&gt; E)(B))(A)</text>
</g>
<!-- 11&#45;&gt;20 -->
<g id="edge29" class="edge">
<title>11-&gt;20</title>
<path fill="none" stroke="#000000" d="M1424.1379,-125.2652C1455.8648,-110.3936 1492.9687,-93.0017 1525.1539,-77.9154"/>
<polygon fill="#000000" stroke="#000000" points="1526.9622,-80.9332 1534.5314,-73.5198 1523.9912,-74.595 1526.9622,-80.9332"/>
</g>
<!-- 12&#45;&gt;15 -->
<g id="edge20" class="edge">
<title>12-&gt;15</title>
<path fill="none" stroke="#000000" d="M387.2427,-125.5839C350.8156,-110.8904 308.1749,-93.6906 270.9453,-78.6734"/>
<polygon fill="#000000" stroke="#000000" points="272.1871,-75.4003 261.6039,-74.9053 269.5685,-81.8921 272.1871,-75.4003"/>
</g>
<!-- 12&#45;&gt;16 -->
<g id="edge22" class="edge">
<title>12-&gt;16</title>
<path fill="none" stroke="#000000" d="M475.4275,-118.4081C476.0473,-110.2405 476.7049,-101.5758 477.3468,-93.1172"/>
<polygon fill="#000000" stroke="#000000" points="480.8516,-93.1853 478.1185,-82.9491 473.8717,-92.6556 480.8516,-93.1853"/>
</g>
<!-- 12&#45;&gt;18 -->
<g id="edge26" class="edge">
<title>12-&gt;18</title>
<path fill="none" stroke="#000000" d="M560.7179,-126.3775C602.2301,-110.6492 651.6772,-91.9146 693.5912,-76.0342"/>
<polygon fill="#000000" stroke="#000000" points="694.8539,-79.2986 702.9651,-72.4826 692.3737,-72.7527 694.8539,-79.2986"/>
</g>
<!-- 13&#45;&gt;17 -->
<g id="edge24" class="edge">
<title>13-&gt;17</title>
<path fill="none" stroke="#000000" d="M1060.1319,-118.4081C1059.5121,-110.2405 1058.8545,-101.5758 1058.2126,-93.1172"/>
<polygon fill="#000000" stroke="#000000" points="1061.6877,-92.6556 1057.4409,-82.9491 1054.7078,-93.1853 1061.6877,-92.6556"/>
</g>
<!-- 13&#45;&gt;19 -->
<g id="edge28" class="edge">
<title>13-&gt;19</title>
<path fill="none" stroke="#000000" d="M1138.7717,-125.5839C1172.0745,-110.4522 1211.2275,-92.6624 1244.9594,-77.3357"/>
<polygon fill="#000000" stroke="#000000" points="1246.664,-80.4056 1254.3204,-73.0823 1243.7683,-74.0326 1246.664,-80.4056"/>
</g>
<!-- 14&#45;&gt;20 -->
<g id="edge30" class="edge">
<title>14-&gt;20</title>
<path fill="none" stroke="#000000" d="M1625.4836,-118.7409C1623.031,-110.1863 1620.4184,-101.074 1617.8788,-92.216"/>
<polygon fill="#000000" stroke="#000000" points="1621.1755,-91.0147 1615.055,-82.3665 1614.4466,-92.9439 1621.1755,-91.0147"/>
</g>
</g>
</svg>